<?xml version="1.0" encoding="utf-8"?>
<!-- Generator: Adobe Illustrator 18.0.0, SVG Export Plug-In . SVG Version: 6.00 Build 0)  -->
<!DOCTYPE svg PUBLIC "-//W3C//DTD SVG 1.1//EN" "http://www.w3.org/Graphics/SVG/1.1/DTD/svg11.dtd">
<svg version="1.1" id="Layer_1" xmlns="http://www.w3.org/2000/svg" xmlns:xlink="http://www.w3.org/1999/xlink" x="0px" y="0px"
	 viewBox="0 0 512 512" enable-background="new 0 0 512 512" xml:space="preserve">
<path d="M324.5,177.8c-29.7,0-55.4,17-68,41.8c-12.6-24.8-38.3-41.8-68-41.8c-42.1,0-76.2,34.1-76.2,76.2
	c0,42.1,34.1,76.2,76.2,76.2c29.7,0,55.4-17,68-41.8c12.6,24.8,38.3,41.8,68,41.8c42.1,0,76.2-34.1,76.2-76.2
	C400.7,211.9,366.6,177.8,324.5,177.8z M324.5,309.9c-30.8,0-55.9-25.1-55.9-55.9s25.1-55.9,55.9-55.9c30.8,0,55.9,25.1,55.9,55.9
	S355.3,309.9,324.5,309.9z" fill="#FFFFFF"/>
</svg>
