<?xml version="1.0" encoding="utf-8"?>
<!-- Generator: Adobe Illustrator 18.0.0, SVG Export Plug-In . SVG Version: 6.00 Build 0)  -->
<!DOCTYPE svg PUBLIC "-//W3C//DTD SVG 1.1//EN" "http://www.w3.org/Graphics/SVG/1.1/DTD/svg11.dtd">
<svg version="1.1" id="Layer_1" xmlns="http://www.w3.org/2000/svg" xmlns:xlink="http://www.w3.org/1999/xlink" x="0px" y="0px"
	 viewBox="0 0 512 512" enable-background="new 0 0 512 512" xml:space="preserve">
<path d="M331.7,114.2c0,0-129.1,0-149.8,0c-20.7,0-26.7,15.5-26.7,25.3c0,9.8,0,238,0,238c0,11,5.9,15.1,9.3,16.5
	c3.3,1.4,12.5,2.5,18-3.9c0,0,70.7-82.1,71.9-83.3c1.8-1.8,1.8-1.8,3.7-1.8c3.7,0,30.9,0,45.8,0c19.2,0,22.3-13.7,24.3-21.8
	c1.1-4.5,9.8-48.3,17.3-86.2l9.4-47C359.6,126.7,353.7,114.2,331.7,114.2z M322.8,154.7l-6.3,32.8c-0.8,3.5-5.2,7.3-9.3,7.3
	c-4.1,0-58.4,0-58.4,0c-6.6,0-11.3,4.5-11.3,11v7.1c0,6.6,4.7,11.2,11.3,11.2c0,0,44.9,0,49.5,0c4.6,0,9.2,5.1,8.2,10
	c-1,5-5.7,29.5-6.3,32.2c-0.6,2.7-3.7,7.3-9.2,7.3c-4.6,0-40.4,0-40.4,0c-7.4,0-9.6,1-14.5,7.1c-4.9,6.1-49.2,59.3-49.2,59.3
	c-0.4,0.5-0.9,0.4-0.9-0.2V154.2c0-4.2,3.6-9.1,9.1-9.1c0,0,115.5,0,120.2,0C319.8,145.1,324,149.3,322.8,154.7z" fill="#57008E"/>
</svg>
