<?xml version="1.0" encoding="utf-8"?>
<!-- Generator: Adobe Illustrator 18.0.0, SVG Export Plug-In . SVG Version: 6.00 Build 0)  -->
<!DOCTYPE svg PUBLIC "-//W3C//DTD SVG 1.1//EN" "http://www.w3.org/Graphics/SVG/1.1/DTD/svg11.dtd">
<svg version="1.1" id="Layer_1" xmlns="http://www.w3.org/2000/svg" xmlns:xlink="http://www.w3.org/1999/xlink" x="0px" y="0px"
	 viewBox="0 0 512 512" enable-background="new 0 0 512 512" xml:space="preserve">
<polygon points="401.7,159.6 363.4,159.6 363.4,121.4 344.3,121.4 344.3,159.6 306.1,159.6 306.1,178.7 344.3,178.7 344.3,217 
	363.4,217 363.4,178.7 401.7,178.7 401.7,159.6 " fill="#FFFFFF"/>
<path d="M258.5,278.5c-26.8-19.5-33.3-30.6-7.8-50.3c14.4-11.1,24.5-26,24.5-44.3c0-20-8.2-38.1-23.5-46.9h21.8l18.5-19.4
	c0,0-69.8,0-82.9,0c-51.7,0-77.1,31-77.1,65.1c0,34.9,23.9,62.3,70.6,62.3c-7.2,14.6-4.3,28.1,7.5,37.8c-79.8,0-96.8,35-96.8,62
	c0,34.9,40.2,55.7,88.3,55.7c65.8,0,92-34.9,92-63.6C293.6,313.5,284.9,298.3,258.5,278.5z M163.1,182.2
	c-3.9-29.3,11.1-51.8,33.5-51.1c22.3,0.7,41.4,24.7,45.3,54.1c3.9,29.3-9,48.2-31.3,47.6C188.2,232,167,211.5,163.1,182.2z
	 M201.8,384.9c-33.3,0-57.3-21.1-57.3-46.4c0-24.8,28.2-46.2,61.5-45.8c36.9,0,58.9,23,58.9,47.1
	C264.9,365.1,244.4,384.9,201.8,384.9z" fill="#FFFFFF"/>
</svg>
