<?xml version="1.0" encoding="utf-8"?>
<!-- Generator: Adobe Illustrator 18.0.0, SVG Export Plug-In . SVG Version: 6.00 Build 0)  -->
<!DOCTYPE svg PUBLIC "-//W3C//DTD SVG 1.1//EN" "http://www.w3.org/Graphics/SVG/1.1/DTD/svg11.dtd">
<svg version="1.1" id="Layer_1" xmlns="http://www.w3.org/2000/svg" xmlns:xlink="http://www.w3.org/1999/xlink" x="0px" y="0px"
	 viewBox="0 0 512 512" enable-background="new 0 0 512 512" xml:space="preserve">
<path d="M360.6,120H151.4c-17.3,0-31.4,14-31.4,31.4v209.2c0,17.3,14,31.4,31.4,31.4h209.2c17.3,0,31.4-14.1,31.4-31.4V151.4
	C392,134.1,377.9,120,360.6,120z M256,203.7c28.9,0,52.3,23.4,52.3,52.3c0,28.9-23.4,52.3-52.3,52.3c-28.9,0-52.3-23.4-52.3-52.3
	C203.7,227.1,227.1,203.7,256,203.7z M360.6,350.1c0,5.8-4.7,10.4-10.5,10.4H161.9c-5.8,0-10.5-4.7-10.5-10.4v-115h23.7
	c-1.7,6.7-2.7,13.7-2.7,20.9c0,46.2,37.5,83.7,83.7,83.7c46.2,0,83.7-37.5,83.7-83.7c0-7.2-1-14.2-2.7-20.9h23.7V350.1z
	 M360.6,193.2c0,5.8-4.7,10.5-10.5,10.5h-31.4c-5.8,0-10.5-4.7-10.5-10.5v-31.4c0-5.8,4.7-10.5,10.5-10.5h31.4
	c5.8,0,10.5,4.7,10.5,10.5V193.2z" fill="#57008E"/>
</svg>
