<?xml version="1.0" encoding="utf-8"?>
<!-- Generator: Adobe Illustrator 18.0.0, SVG Export Plug-In . SVG Version: 6.00 Build 0)  -->
<!DOCTYPE svg PUBLIC "-//W3C//DTD SVG 1.1//EN" "http://www.w3.org/Graphics/SVG/1.1/DTD/svg11.dtd">
<svg version="1.1" id="Layer_1" xmlns="http://www.w3.org/2000/svg" xmlns:xlink="http://www.w3.org/1999/xlink" x="0px" y="0px"
	 viewBox="0 0 512 512" enable-background="new 0 0 512 512" xml:space="preserve">
<path d="M282.7,326.2c-17.9,0-34.7-9.7-40.5-20.6c0,0-9.6,38.2-11.7,45.5c-7.2,26-28.3,52.1-29.9,54.2c-1.1,1.5-3.7,1-3.9-0.9
	c-0.5-3.3-5.8-36.2,0.5-63c3.2-13.5,21.3-90.3,21.3-90.3s-5.3-10.6-5.3-26.2c0-24.6,14.2-42.9,31.9-42.9c15.1,0,22.3,11.3,22.3,24.9
	c0,15.1-9.6,37.8-14.6,58.8c-4.2,17.6,8.8,31.9,26.1,31.9c31.4,0,52.5-40.3,52.5-88.1c0-36.3-24.4-63.5-68.9-63.5
	c-50.2,0-81.6,37.5-81.6,79.3c0,14.4,4.3,24.6,10.9,32.5c3.1,3.6,3.5,5.1,2.4,9.2c-0.8,3.1-2.6,10.4-3.4,13.3
	c-1.1,4.2-4.5,5.7-8.3,4.1c-23.1-9.4-33.9-34.8-33.9-63.3c0-47.1,39.7-103.5,118.4-103.5c63.3,0,104.9,45.8,104.9,94.9
	C372.1,277.7,336,326.2,282.7,326.2z" fill="#CF1913"/>
</svg>
