<?xml version="1.0" encoding="utf-8"?>
<!-- Generator: Adobe Illustrator 21.0.0, SVG Export Plug-In . SVG Version: 6.00 Build 0)  -->
<!DOCTYPE svg PUBLIC "-//W3C//DTD SVG 1.1//EN" "http://www.w3.org/Graphics/SVG/1.1/DTD/svg11.dtd">
<svg version="1.1" id="Layer_1" xmlns="http://www.w3.org/2000/svg" xmlns:xlink="http://www.w3.org/1999/xlink" x="0px" y="0px"
	 viewBox="0 0 512 512" style="enable-background:new 0 0 512 512;" xml:space="preserve">
<style type="text/css">
	.st0{fill:#57008E;}
</style>
<path class="st0" d="M442.1,344.9c-52.1-8.7-75.4-62.3-76.5-64.4l-0.3-0.5c-2.8-5.6-3.3-10.5-1.8-14.1c3.1-7.2,14.1-10.8,21.6-13.1
	c2.1-0.5,4.1-1.3,5.6-1.8c13.1-5.1,19.5-11.5,19.5-18.7c0-5.6-4.6-10.8-11.8-13.3c-2.6-1-5.4-1.5-8-1.5c-2.6,0-5.1,0.5-7.4,1.5
	c-5.1,2.6-10.8,4.1-16.7,4.6c-2.3,0-4.4-0.5-6.4-1.5c0.3-2.6,0.3-5.4,0.5-8.2v-1c1.5-26.2,3.6-58.8-4.9-78
	c-25.1-57.5-79-61.8-94.9-61.8H253c-15.9,0-69.8,4.4-94.9,61.3c-8.7,19.2-6.7,51.6-5.1,77.7c0.3,3.1,0.5,6.4,0.5,9.5
	c-2.3,1.3-4.9,1.8-7.4,1.5c-6.2-0.3-12.1-1.8-17.7-4.6c-1.8-0.8-4.1-1.3-6.2-1.3c-8,0-17.2,5.1-18.7,12.8c-1,5.6,1.5,13.6,19.2,20.8
	c1.5,0.5,3.6,1.3,5.6,1.8c7.4,2.3,18.5,5.9,21.6,13.1c1.5,3.6,1,8.5-1.8,14.1l-0.3,0.5c-1,2.3-24.6,55.9-77,64.7
	c-4.1,0.5-6.9,4.4-6.7,8.2c0,1.3,0.3,2.6,0.8,3.6c3.8,9.2,20.5,15.9,50.5,20.5c1.3,2.8,2.1,5.9,2.6,9.2c0.5,2.8,1.3,5.9,2.3,9
	c1,4.4,4.9,7.2,9.2,6.7c2.8-0.3,5.9-0.5,8.7-1.3c6.7-1.5,13.6-2.3,20.5-2.3c4.9,0,9.7,0.5,14.6,1.3c9.7,1.5,18,7.4,27.5,14.4
	c13.6,9.7,29.2,20.8,52.9,20.8h4.9c23.6,0,39-11,52.9-20.8c9.5-6.7,18-12.6,27.7-14.4c4.9-0.8,9.7-1.3,14.6-1.3
	c6.9,0,13.9,0.8,20.5,2.3c2.8,0.5,5.6,1,8.7,1h0.5c4.1,0.3,8-2.6,9-6.7c1-3.1,1.5-5.9,2.3-9c0.5-3.1,1.3-6.2,2.6-9
	c30.3-4.6,46.7-11.3,50.5-20.5c0.5-1,0.8-2.3,0.8-3.6C449,349.1,446.2,345.5,442.1,344.9z"/>
</svg>
