<?xml version="1.0" encoding="utf-8"?>
<!-- Generator: Adobe Illustrator 18.0.0, SVG Export Plug-In . SVG Version: 6.00 Build 0)  -->
<!DOCTYPE svg PUBLIC "-//W3C//DTD SVG 1.1//EN" "http://www.w3.org/Graphics/SVG/1.1/DTD/svg11.dtd">
<svg version="1.1" id="Layer_1" xmlns="http://www.w3.org/2000/svg" xmlns:xlink="http://www.w3.org/1999/xlink" x="0px" y="0px"
	 viewBox="0 0 512 512" enable-background="new 0 0 512 512" xml:space="preserve">
<path d="M345.1,384.5c-12.3,5.8-23.5,9.9-33.5,12.2c-10,2.3-20.8,3.5-32.4,3.5c-13.2,0-24.8-1.7-34.9-5
	c-10.1-3.3-18.8-8.1-25.9-14.2c-7.1-6.2-12.1-12.7-14.9-19.6c-2.8-6.9-4.1-17-4.1-30.1V230.1h-31.6V189c11.3-3.7,21-8.9,29-15.8
	c8.1-6.9,14.5-15.1,19.4-24.7c4.9-9.6,8.2-21.8,10.1-36.7h40.9v73.1h68.5v45.3h-68.5v74c0,16.7,0.9,27.5,2.7,32.2
	c1.8,4.7,5.1,8.5,9.9,11.4c6.4,3.8,13.7,5.7,21.9,5.7c14.6,0,29.1-4.7,43.6-14.2L345.1,384.5L345.1,384.5z" fill="#304E6F"/>
</svg>
