<?xml version="1.0" encoding="UTF-8" standalone="no"?>
<!-- Created with Inkscape (http://www.inkscape.org/) -->

<svg
   xmlns:dc="http://purl.org/dc/elements/1.1/"
   xmlns:cc="http://creativecommons.org/ns#"
   xmlns:rdf="http://www.w3.org/1999/02/22-rdf-syntax-ns#"
   xmlns:svg="http://www.w3.org/2000/svg"
   xmlns="http://www.w3.org/2000/svg"
   xmlns:sodipodi="http://sodipodi.sourceforge.net/DTD/sodipodi-0.dtd"
   xmlns:inkscape="http://www.inkscape.org/namespaces/inkscape"
   width="512"
   height="512"
   id="svg2"
   version="1.1"
   inkscape:version="0.91 r13725"
   sodipodi:docname="twitter.svg">
  <defs
     id="defs4" />
  <sodipodi:namedview
     id="base"
     pagecolor="#ffffff"
     bordercolor="#666666"
     borderopacity="1.0"
     inkscape:pageopacity="0.0"
     inkscape:pageshadow="2"
     inkscape:zoom="1.3152388"
     inkscape:cx="344.22958"
     inkscape:cy="254.16256"
     inkscape:document-units="px"
     inkscape:current-layer="layer1"
     showgrid="false"
     inkscape:window-width="2048"
     inkscape:window-height="1231"
     inkscape:window-x="0"
     inkscape:window-y="0"
     inkscape:window-maximized="1"
     fit-margin-top="0"
     fit-margin-left="0"
     fit-margin-right="0"
     fit-margin-bottom="0" />
  <metadata
     id="metadata7">
    <rdf:RDF>
      <cc:Work
         rdf:about="">
        <dc:format>image/svg+xml</dc:format>
        <dc:type
           rdf:resource="http://purl.org/dc/dcmitype/StillImage" />
        <dc:title></dc:title>
      </cc:Work>
    </rdf:RDF>
  </metadata>
  <g
     inkscape:label="Layer 1"
     inkscape:groupmode="layer"
     id="layer1"
     transform="translate(-282.32053,-23.685727)">
    <path
       style="fill:#2aa9e0"
       inkscape:connector-curvature="0"
       id="path5"
       d="m 734.38335,150.27743 c -14.16989,6.6314 -29.40085,11.11123 -45.38287,13.12665 16.31327,-10.31686 28.84428,-26.65356 34.74294,-46.12103 -15.26948,9.55495 -32.17973,16.49108 -50.17995,20.22938 -14.41253,-16.2026 -34.94902,-26.32443 -57.67703,-26.32443 -43.63808,0 -79.02039,37.32389 -79.02039,83.36166 0,6.53385 0.69906,12.89706 2.0471,18.99819 -65.67284,-3.4762 -123.89676,-36.66565 -162.87064,-87.10197 -6.80185,12.31196 -10.69962,26.6312 -10.69962,41.9094 0,28.92292 13.95034,54.43871 35.15312,69.38778 -12.95274,-0.43274 -25.13714,-4.18322 -35.79055,-10.42653 -0.01,0.34738 -0.01,0.69682 -0.01,1.04831 0,40.38972 27.2382,74.08096 63.38695,81.74445 -6.63045,1.90571 -13.61138,2.92358 -20.81766,2.92358 -5.09175,0 -10.04098,-0.52417 -14.86698,-1.49531 10.05639,33.11832 39.23768,57.22007 73.81695,57.89052 -27.04369,22.36061 -61.11452,35.6884 -98.1376,35.6884 -6.37818,0 -12.66775,-0.39618 -18.8495,-1.1662 34.97019,23.65482 76.50533,37.45598 121.12942,37.45598 145.34414,0 224.82673,-127.02637 224.82673,-237.19192 0,-3.61435 -0.0771,-7.2084 -0.22916,-10.78614 15.43701,-11.75124 28.83272,-26.43212 39.42643,-43.15077 z" />
  </g>
</svg>
