<?xml version="1.0" encoding="utf-8"?>
<!-- Generator: Adobe Illustrator 18.0.0, SVG Export Plug-In . SVG Version: 6.00 Build 0)  -->
<!DOCTYPE svg PUBLIC "-//W3C//DTD SVG 1.1//EN" "http://www.w3.org/Graphics/SVG/1.1/DTD/svg11.dtd">
<svg version="1.1" id="Layer_1" xmlns="http://www.w3.org/2000/svg" xmlns:xlink="http://www.w3.org/1999/xlink" x="0px" y="0px"
	 viewBox="0 0 512 512" enable-background="new 0 0 512 512" xml:space="preserve">
<path d="M420.3,292.8c0-46.4-46.4-84.1-98.5-84.1c-55.2,0-98.6,37.8-98.6,84.1c0,46.4,43.4,84.1,98.6,84.1c11.5,0,23.2-2.9,34.8-5.8
	l31.8,17.4l-8.7-29C403,342.1,420.3,318.9,420.3,292.8z M289.9,278.2c-5.8,0-11.6-5.7-11.6-11.6c0-5.8,5.8-11.6,11.6-11.6
	c8.8,0,14.5,5.8,14.5,11.6C304.4,272.5,298.7,278.2,289.9,278.2z M353.7,278.2c-5.7,0-11.5-5.7-11.5-11.6c0-5.8,5.8-11.6,11.5-11.6
	c8.7,0,14.5,5.8,14.5,11.6C368.2,272.5,362.3,278.2,353.7,278.2z" fill="#78AB27"/>
<path d="M208.7,121.7c-63.7,0-115.9,43.4-115.9,98.6c0,31.9,17.4,58,46.4,78.3l-11.6,34.9l40.5-20.3c14.5,2.9,26.1,5.8,40.6,5.8
	c3.6,0,7.2-0.2,10.8-0.5c-2.3-7.7-3.6-15.9-3.6-24.3c0-50.7,43.5-91.8,98.6-91.8c3.8,0,7.5,0.3,11.2,0.7
	C315.6,156.4,265.7,121.7,208.7,121.7z M171,199.9c-8.7,0-17.5-5.8-17.5-14.5c0-8.7,8.8-14.5,17.5-14.5c8.7,0,14.5,5.7,14.5,14.5
	C185.5,194.1,179.7,199.9,171,199.9z M252.2,199.9c-8.7,0-17.4-5.8-17.4-14.5c0-8.7,8.7-14.5,17.4-14.5c8.7,0,14.5,5.7,14.5,14.5
	C266.7,194.1,260.9,199.9,252.2,199.9z" fill="#78AB27"/>
</svg>
