<?xml version="1.0" encoding="utf-8"?>
<!-- Generator: Adobe Illustrator 18.0.0, SVG Export Plug-In . SVG Version: 6.00 Build 0)  -->
<!DOCTYPE svg PUBLIC "-//W3C//DTD SVG 1.1//EN" "http://www.w3.org/Graphics/SVG/1.1/DTD/svg11.dtd">
<svg version="1.1" id="Layer_1" xmlns="http://www.w3.org/2000/svg" xmlns:xlink="http://www.w3.org/1999/xlink" x="0px" y="0px"
	 viewBox="0 0 512 512" enable-background="new 0 0 512 512" xml:space="preserve">
<path d="M330.1,256.1c-4.3-1.3-7.2-2.2-5-7.9c4.9-12.5,5.4-23.2,0.1-30.9c-9.9-14.4-37-13.6-68-0.4c0,0-9.8,4.3-7.3-3.5
	c4.8-15.6,4.1-28.7-3.4-36.3c-16.8-17.2-61.6,0.7-100.1,39.7C117.7,246,101,277.1,101,303.9c0,51.3,64.7,85.7,128,85.7
	c83,0,138.1-52.2,138.1-91.1C367.1,274.9,347.6,261.6,330.1,256.1z M229.1,366.6c-50.5,5-94.1-17.9-97.4-51.3
	c-3.3-33.3,35-64.4,85.5-69.4c50.5-5,94.1,17.9,97.4,51.3C317.9,330.5,279.6,361.6,229.1,366.6z" fill="#FFFFFF"/>
<path d="M215.6,339.9c-20.3,4.1-39.6-6.3-43-23.3c-3.4-16.9,10.3-34,30.7-38.1c20.3-4.1,39.6,6.3,43,23.3
	C249.6,318.8,235.9,335.8,215.6,339.9z" fill="#FFFFFF"/>
<path d="M360.4,225.6c-5.9,1.2-11.7-2.6-12.9-8.5c-3.3-15.9-15.8-28.4-31.7-31.7c-5.9-1.2-9.7-7-8.5-12.9c1.2-5.9,7-9.7,12.9-8.5
	c24.5,5,43.7,24.3,48.7,48.7C370.2,218.6,366.4,224.4,360.4,225.6z" fill="#FFFFFF"/>
<path d="M412.5,214.3c0,6.1-4.9,11-11,11c-6,0-11-4.9-11-11c0-39.8-32.2-72-72-72c-6.1,0-11-4.9-11-11c0-6.1,4.9-11,11-11
	C370.4,120.4,412.5,162.4,412.5,214.3C412.5,214.3,412.5,214.3,412.5,214.3z" fill="#FFFFFF"/>
</svg>
