<?xml version="1.0" encoding="utf-8"?>
<!-- Generator: Adobe Illustrator 20.0.0, SVG Export Plug-In . SVG Version: 6.00 Build 0)  -->
<svg version="1.1" id="Layer_1" xmlns="http://www.w3.org/2000/svg" xmlns:xlink="http://www.w3.org/1999/xlink" x="0px" y="0px"
	 viewBox="0 0 141.2 121.6" style="enable-background:new 0 0 141.2 121.6;" xml:space="preserve">
<style type="text/css">
	.st0{display:none;fill:#FFFFFF;stroke:#000000;stroke-width:3;stroke-miterlimit:10;}
	.st1{fill:none;stroke:#9B2626;stroke-width:3;stroke-miterlimit:10;}
	.st2{display:none;opacity:0.95;fill:#9B2626;}
	.st3{display:none;opacity:0.8;fill:#9B2626;}
	.st4{display:none;opacity:0.7;fill:#9B2626;}
</style>
<path class="st0" d="M26.3,110.7c5.3,0.3,11.6-1.2,17.5-4.6c15-8.6,17.3-19.5,13.3-26.4c-2.2-3.9-6.7-6.1-12-6.4"/>
<path class="st1" d="M49,98.9c0.8,0.1,1.5,0.2,2.2,0.4c6.4,1.9,13.4,3,20.6,3c31.2,0,56.6-19.5,56.6-43.6s-25.3-43.6-56.6-43.6
	S15.3,34.6,15.3,58.7c0,13.6,8,25.7,20.7,33.7c0,0,5.2,4.7-2.9,13c0,0,6.9,3.9,14.4-6.2c0.2-0.2,0.5-0.4,0.8-0.4L49,98.9z"/>
<circle class="st2" cx="47.9" cy="58.5" r="4.9"/>
<circle class="st3" cx="72.1" cy="58.5" r="4.9"/>
<circle class="st4" cx="96.3" cy="58.5" r="4.9"/>
</svg>
