<svg xmlns="http://www.w3.org/2000/svg" xmlns:xlink="http://www.w3.org/1999/xlink" width="159.953" height="20" viewBox="0 0 159.953 20">
  <defs>
    <clipPath id="clip-path">
      <path id="Intersection_2210" data-name="Intersection 2210" d="M6.853,10.152v-.064c.208-.064.352-.288.352-.753V3.523c-.576-.416-1.649-1.089-2.258-1.489l-.592.512V9.336l.977.737S4.019,11.161,3.379,11.8c-.592-.544-1.265-1.025-2.066-1.633V10.12a.713.713,0,0,0,.352-.689V2.738l-.8-.7L.24,2.562,0,2.29C.592,1.793,1.665.833,2.53,0L4.355,1.633V2.1L6.821,0C7.606.56,9.9,2.018,9.9,2.018L12.266,0a40.377,40.377,0,0,0,3.459,2.242v.1c-.32.08-.352.5-.352.7V9.063l1.025.769L16.99,9.3l.288.24c-.641.544-1.922,1.681-2.53,2.258-.56-.5-1.713-1.409-2.434-1.922v-.1c.208-.064.352-.256.352-.737V3.523C12.09,3.106,11,2.434,10.376,2.034L9.9,2.5V9.336l.977.737s-1.345,1.169-1.954,1.745A24.122,24.122,0,0,0,6.853,10.152Z" fill="none" stroke="rgba(0,0,0,0)" stroke-width="0.16"/>
    </clipPath>
    <clipPath id="clip-path-2">
      <path id="Intersection_2211" data-name="Intersection 2211" d="M.817,2,.24,2.546,0,2.242,2.5,0c.7,1.409,1.537,1.617,2.21,1.6l.043.087A2.411,2.411,0,0,1,2.562,2.994,2.162,2.162,0,0,1,.817,2Zm3.935-.314,0-.007V1.7Z" transform="translate(0 0)" fill="none" stroke="rgba(0,0,0,0)" stroke-width="0.16"/>
    </clipPath>
    <clipPath id="clip-path-3">
      <path id="Intersection_2212" data-name="Intersection 2212" d="M1.313,9.88V9.816a.713.713,0,0,0,.352-.689V2.738l-.8-.7L.24,2.562,0,2.29C.592,1.793,1.665.833,2.53,0L4.708,1.922v.1c-.256.08-.352.24-.352.849v6.2L5.4,9.8l.576-.512.256.256c-.7.592-1.874,1.633-2.5,2.258C3.139,11.257,2.114,10.488,1.313,9.88Zm4.916-.336.016.016Z" fill="none" stroke="rgba(0,0,0,0)" stroke-width="0.16"/>
    </clipPath>
    <clipPath id="clip-path-4">
      <path id="Intersection_2213" data-name="Intersection 2213" d="M1.313,13.8v-.064a.713.713,0,0,0,.352-.689V2.706L.865,2,.24,2.53,0,2.258C.592,1.761,1.537.817,2.386,0L4.692,1.921v.1c-.256.08-.352.24-.352.849v10.12l1.041.737.592-.512.239.271c-.706.595-1.861,1.624-2.481,2.243C3.139,15.18,2.114,14.412,1.313,13.8Zm4.9-.322.017-.015-.016.016Z" transform="translate(0)" fill="none" stroke="rgba(0,0,0,0)" stroke-width="0.16"/>
    </clipPath>
    <clipPath id="clip-path-5">
      <path id="Intersection_2214" data-name="Intersection 2214" d="M6.869,9.864v-.1c.208-.064.352-.256.352-.737V3.507C6.645,3.09,5.572,2.418,4.964,2.018l-.592.512V9.32l.977.737s-1.329,1.089-1.97,1.729c-.592-.544-1.249-1.025-2.034-1.633V10.1A.712.712,0,0,0,1.7,9.416V2.722L.881,1.986l-.592.528L0,2.258C.592,1.761,1.7.817,2.546,0l1.81,1.633V2.1L6.821,0a40.053,40.053,0,0,0,3.443,2.242v.1c-.32.08-.352.5-.352.7v6l1.041.753.576-.528.272.272-.016-.016c-.64.544-1.906,1.681-2.5,2.258C8.727,11.289,7.59,10.376,6.869,9.864ZM11.8,9.544Z" transform="translate(0 0)" fill="none" stroke="rgba(0,0,0,0)" stroke-width="0.16"/>
    </clipPath>
    <clipPath id="clip-path-6">
      <path id="Intersection_2215" data-name="Intersection 2215" d="M.48,12.378c-.208,0-.48-.3-.48-.689,0-.721.368-1.345,1.505-2.53l2-2.082C2.69,6.661,1.489,6.133.833,5.829v-.1a.5.5,0,0,0,.336-.48v-1.7a.589.589,0,0,0-.336-.56V2.9A24.353,24.353,0,0,0,5.861.24,2.682,2.682,0,0,0,7.606,1.2c.769,0,.8-.32.8-.56s-.24-.192-.24-.4.1-.24.224-.24.352.192.352.56A2.671,2.671,0,0,1,6.1,3.058,2.578,2.578,0,0,1,3.891,1.81H3.843V4.532l1.457.7.673-.688a27.237,27.237,0,0,0,2.9,1.537v.064a.593.593,0,0,0-.352.56V8.583a.592.592,0,0,0,.352.512v.1l-.016-.016a21.709,21.709,0,0,0-4.9,2.882A3.231,3.231,0,0,0,1.7,11.017c-.961,0-1.329.336-1.329.64s.384.16.384.448a.256.256,0,0,1-.256.273ZM5.8,10.424h.048V7.206c-.384-.176-.961-.432-1.329-.624l-3.091,3.2h.1a3.161,3.161,0,0,1,1.842-.576A3.745,3.745,0,0,1,5.8,10.424Z" transform="translate(0 0)" fill="none" stroke="rgba(0,0,0,0)" stroke-width="0.16"/>
    </clipPath>
    <clipPath id="clip-path-7">
      <path id="Intersection_2216" data-name="Intersection 2216" d="M0,9.7v-.1c.176-.064.384-.176.384-.624v-5.6c0-.464-.176-.608-.384-.64v-.1A23.872,23.872,0,0,0,5.188,0c.8,1.2,1.842,2.674,2.594,3.635l-.016.032L3.026,6.613V8.631A22.66,22.66,0,0,1,5.6,9.96L6.629,8.919c.288-.288.192-.753.689-.753a.224.224,0,0,1,.24.24.446.446,0,0,1-.192.336L4.26,11.818A37.563,37.563,0,0,0,0,9.7ZM3.026,6.213,5.26,4.793C4.7,4.006,3.712,2.622,3.091,1.7H3.026Z" fill="none" stroke="rgba(0,0,0,0)" stroke-width="0.16"/>
    </clipPath>
    <clipPath id="clip-path-8">
      <path id="Intersection_2217" data-name="Intersection 2217" d="M.48,12.378c-.208,0-.48-.3-.48-.689,0-.721.368-1.345,1.505-2.53l2-2.082C2.69,6.661,1.489,6.133.833,5.829v-.1a.5.5,0,0,0,.336-.48v-1.7a.589.589,0,0,0-.336-.56V2.9A24.353,24.353,0,0,0,5.861.24,2.682,2.682,0,0,0,7.606,1.2c.769,0,.8-.32.8-.56s-.24-.192-.24-.4.1-.24.224-.24.352.192.352.56A2.671,2.671,0,0,1,6.1,3.058,2.579,2.579,0,0,1,3.891,1.81H3.843V4.532l1.457.7.673-.688a27.236,27.236,0,0,0,2.9,1.537v.064a.593.593,0,0,0-.352.56V8.583a.593.593,0,0,0,.352.512v.1l-.016-.016a21.709,21.709,0,0,0-4.9,2.882A3.231,3.231,0,0,0,1.7,11.017c-.961,0-1.329.336-1.329.64s.384.16.384.448a.256.256,0,0,1-.256.273Zm5.332-1.954h.032V7.206c-.384-.176-.961-.432-1.329-.624l-3.075,3.2h.1a3.161,3.161,0,0,1,1.842-.576A3.745,3.745,0,0,1,5.813,10.424Z" transform="translate(0 0)" fill="none" stroke="rgba(0,0,0,0)" stroke-width="0.16"/>
    </clipPath>
    <clipPath id="clip-path-9">
      <path id="Intersection_2218" data-name="Intersection 2218" d="M0,9.7v-.1c.176-.064.352-.176.352-.624v-5.6c0-.464-.16-.608-.352-.64v-.1A23.872,23.872,0,0,0,5.188,0C5.989,1.2,7,2.674,7.766,3.635l-.032.032L3.01,6.613V8.631A22.671,22.671,0,0,1,5.588,9.96L6.613,8.919c.288-.288.192-.753.688-.753.144,0,.224.08.224.24a.477.477,0,0,1-.192.336L4.259,11.818A37.549,37.549,0,0,0,0,9.7ZM3.01,6.213l2.234-1.42C4.682,4.006,3.7,2.622,3.074,1.7H3.01Z" transform="translate(0)" fill="none" stroke="rgba(0,0,0,0)" stroke-width="0.16"/>
    </clipPath>
    <clipPath id="clip-path-10">
      <path id="Intersection_2219" data-name="Intersection 2219" d="M0,9.7v-.1c.176-.064.352-.176.352-.625v-5.6c0-.464-.16-.608-.352-.64v-.1A23.866,23.866,0,0,0,5.188,0C5.989,1.2,7,2.674,7.766,3.635l-.016.016L3.042,6.6V8.615A22.637,22.637,0,0,1,5.621,9.944L6.645,8.9c.288-.288.16-.753.673-.753a.224.224,0,0,1,.24.24.446.446,0,0,1-.192.336L4.259,11.818A37.549,37.549,0,0,0,0,9.7ZM3.026,6.2l2.21-1.425.016.016C4.692,4,3.7,2.61,3.074,1.681H3.026Z" fill="none" stroke="rgba(0,0,0,0)" stroke-width="0.16"/>
    </clipPath>
    <clipPath id="clip-path-11">
      <path id="Intersection_2220" data-name="Intersection 2220" d="M1.906,14.267a2.194,2.194,0,0,0-1.793.64L0,14.844a2.876,2.876,0,0,1,3.058-2.866c1.665,0,3.155,1.169,5.092,1.169a1.831,1.831,0,0,0,2-1.313v-.048a1.953,1.953,0,0,1-1.089.352,2.268,2.268,0,0,1-2.258-1.906c-.48.336-1.553,1.169-2.018,1.569A35.661,35.661,0,0,0,.817,9.688v-.1a.544.544,0,0,0,.3-.528V3.395c0-.336-.128-.576-.352-.624v-.1A22.144,22.144,0,0,0,5.829,0,44.223,44.223,0,0,0,9.8,2.578V2.69c-.24.1-.352.256-.352.8V9.656c0,.785.064,1.329.641,1.329a.432.432,0,0,0,.288-.176l.128.16-.016-.016c-.064,2.53-1.313,4.275-3.683,4.275C4.948,15.228,3.587,14.267,1.906,14.267ZM3.8,8.615a18.38,18.38,0,0,1,2.642,1.553l.3-.24V3.635a21.4,21.4,0,0,1-2.9-2.066H3.8ZM10.5,10.969Z" transform="translate(0 0)" fill="none" stroke="rgba(0,0,0,0)" stroke-width="0.16"/>
    </clipPath>
    <clipPath id="clip-path-12">
      <path id="Intersection_2221" data-name="Intersection 2221" d="M2.492,15.789a3.815,3.815,0,0,0-2.322.673c-.08.08-.208.048-.16-.112a3.577,3.577,0,0,1,3.235-2.818L6.992,3.155C6.576,1.938,6.111,1.7,5.183,1.7s-1.729.4-1.729,1.489c0,.5.48.448.48.817a.288.288,0,0,1-.288.272c-.32,0-.528-.432-.528-1.265A2.926,2.926,0,0,1,6.127,0,2.464,2.464,0,0,1,8.561,1.153,1.317,1.317,0,0,1,9.7.272l.048.064A1.554,1.554,0,0,0,9.33,1.377a4.054,4.054,0,0,0,.224.881l4.035,11.657.737.464.624-.576.272.288h-.032l-2.61,2.418c-.753-.544-1.409-.977-2.37-1.569v-.112a.56.56,0,0,0,.336-.56,1.134,1.134,0,0,0-.048-.352L9.73,11.481h-5.4l-.7,2.034a5.67,5.67,0,0,1,2.306.4l.464-.865.336.176-1.777,3.3A4.9,4.9,0,0,0,2.492,15.789ZM4.91,9.944H9.2L7.152,3.651ZM15.223,14.091Z" fill="none" stroke="rgba(0,0,0,0)" stroke-width="0.16"/>
    </clipPath>
    <clipPath id="clip-path-13">
      <path id="Intersection_2222" data-name="Intersection 2222" d="M.48,12.378c-.208,0-.48-.3-.48-.689,0-.721.4-1.345,1.537-2.53l2-2.082C2.722,6.661,1.505,6.133.833,5.829v-.1a.512.512,0,0,0,.352-.48v-1.7a.609.609,0,0,0-.352-.56V2.9A24.356,24.356,0,0,0,5.861.24,2.682,2.682,0,0,0,7.606,1.2c.769,0,.8-.32.8-.56S8.183.448,8.183.24,8.247,0,8.375,0a.524.524,0,0,1,.384.56A2.687,2.687,0,0,1,6.1,3.058,2.578,2.578,0,0,1,3.891,1.81H3.827V4.532l1.489.7.672-.688A26.924,26.924,0,0,0,8.871,6.085v.064a.576.576,0,0,0-.336.56V8.583a.56.56,0,0,0,.336.512v.1l-.016-.016a21.473,21.473,0,0,0-4.868,2.882A3.276,3.276,0,0,0,1.7,11.017c-.977,0-1.313.336-1.313.64s.384.16.384.448a.288.288,0,0,1-.288.272ZM5.8,10.424h.048V7.206L4.532,6.581l-3.106,3.2h.112a3.162,3.162,0,0,1,1.842-.576A3.7,3.7,0,0,1,5.8,10.424Z" transform="translate(0 0)" fill="none" stroke="rgba(0,0,0,0)" stroke-width="0.16"/>
    </clipPath>
    <clipPath id="clip-path-14">
      <path id="Intersection_2223" data-name="Intersection 2223" d="M0,9.207V9.143c.272-.1.352-.3.352-.64V3.459c0-.464-.112-.624-.352-.7v-.1A23.347,23.347,0,0,0,5.06,0C6.085.753,7.846,1.874,9.031,2.578v.1a.632.632,0,0,0-.352.641V8.279c0,.352.128.5.352.56v.1H9.015a23.484,23.484,0,0,0-5.028,2.882C2.8,10.953,1.089,9.832,0,9.207Zm3.01-.929a20.677,20.677,0,0,1,2.9,1.922h.064V3.6a20.115,20.115,0,0,1-2.914-2.05H3.01Z" fill="none" stroke="rgba(0,0,0,0)" stroke-width="0.16"/>
    </clipPath>
    <clipPath id="clip-path-15">
      <path id="Intersection_2224" data-name="Intersection 2224" d="M5.749,15.532a11.375,11.375,0,0,0-5.637,1.1L0,16.509a5.726,5.726,0,0,0,2.322-4.788,10.262,10.262,0,0,0-.817-3.395A6.9,6.9,0,0,1,.8,5.348C.8,2.882,2.13,1.489,4.211.432l.176.192A3.314,3.314,0,0,0,3.219,2.77L6.565,0A3.171,3.171,0,0,0,9.271,1.649c1.057,0,1.1-.384,1.1-.689S10.088.721,10.088.5A.24.24,0,0,1,10.36.24c.272,0,.4.336.4.592a2.946,2.946,0,0,1-2.914,2.93,4.386,4.386,0,0,1-.625,0V13.05a8.326,8.326,0,0,1,3.619.881l.512-.881.336.16L9.8,16.685A7.593,7.593,0,0,0,5.749,15.532ZM3.219,3.122a9.326,9.326,0,0,0,.913,3.8,9.319,9.319,0,0,1,.929,3.3c0,1.521-.849,2.5-2.866,4.388l.064.064A8.623,8.623,0,0,1,6.886,13.05H6.9V3.715A3.674,3.674,0,0,1,4.484,2.1Z" fill="none" stroke="rgba(0,0,0,0)" stroke-width="0.16"/>
    </clipPath>
    <clipPath id="clip-path-16">
      <path id="Intersection_2225" data-name="Intersection 2225" d="M.464,10.5c0-5.14,4.323-6.934,7.318-7.11A22.066,22.066,0,0,0,3.459,2.77C2,2.77.352,3.779.352,4.676c0,.336.272.4.272.641S.56,5.6.384,5.6,0,5.316,0,5.092C0,3.139,1.265.352,4.211.352s5.252,1.089,7.574,1.089C13.323,1.441,13.8.9,13.739,0l.24.112a3.814,3.814,0,0,1,.16,1.2,2.7,2.7,0,0,1-2.434,2.658v10.04c1.617-.9,1.954-1.89,1.954-2.354,0-.1-.192-.24-.192-.416a.3.3,0,0,1,.288-.272c.176,0,.272.16.272.464,0,2.338-2.242,5.476-6.982,5.476A6.5,6.5,0,0,1,.464,10.5Zm2.786-.913c0,3.154,2.242,5.172,5.428,5.172a5.242,5.242,0,0,0,2.674-.624h.016V4.019h-.448a12.788,12.788,0,0,1-2.658-.48A6,6,0,0,0,3.251,9.592Z" transform="translate(0)" fill="none" stroke="rgba(0,0,0,0)" stroke-width="0.16"/>
    </clipPath>
    <clipPath id="clip-path-17">
      <path id="Intersection_2226" data-name="Intersection 2226" d="M.224,9.223C1.2,9.1,1.665,8.759,1.665,7.558,1.665,5.941,0,4.628,0,2.722,0,1.185,1.441,0,3.411,0a2.368,2.368,0,0,1,.977.224c.108.062.216.138.224.259a.288.288,0,0,1-.272.238c-.176,0-.32-.336-.8-.336A1.313,1.313,0,0,0,2.258,1.7c0,1.858,1.809,2.61,1.809,4.724,0,1.778-1.729,2.8-3.523,3.042ZM4.611.483V.5S4.612.487,4.611.483Z" transform="translate(0 0)" fill="none" stroke="rgba(0,0,0,0)" stroke-width="0.16"/>
    </clipPath>
  </defs>
  <g id="logo-LAT-full-black" transform="translate(79.976 10)">
    <g id="logo-LAT-full-black-2" data-name="logo-LAT-full-black" transform="translate(-79.976 -10)">
      <g id="Group_13395" data-name="Group 13395" transform="translate(126.038 4.804)" clip-path="url(#clip-path)">
        <rect id="Rectangle_14475" data-name="Rectangle 14475" width="20.048" height="14.581" transform="translate(-1.377 -1.377)"/>
      </g>
      <g id="Group_13396" data-name="Group 13396" transform="translate(121.442 0.977)" clip-path="url(#clip-path-2)">
        <rect id="Rectangle_14477" data-name="Rectangle 14477" width="7.558" height="5.782" transform="translate(-1.393 -1.409)"/>
      </g>
      <g id="Group_13397" data-name="Group 13397" transform="translate(120.609 4.804)" clip-path="url(#clip-path-3)">
        <rect id="Rectangle_14479" data-name="Rectangle 14479" width="9.015" height="14.581" transform="translate(-1.393 -1.377)"/>
      </g>
      <g id="Group_13398" data-name="Group 13398" transform="translate(77.951 0.881)" clip-path="url(#clip-path-4)">
        <rect id="Rectangle_14481" data-name="Rectangle 14481" width="9.015" height="18.525" transform="translate(-1.393 -1.393)"/>
      </g>
      <g id="Group_13399" data-name="Group 13399" transform="translate(48.503 4.82)" clip-path="url(#clip-path-5)">
        <rect id="Rectangle_14483" data-name="Rectangle 14483" width="14.588" height="14.581" transform="translate(-1.393 -1.393)"/>
      </g>
      <g id="Group_13400" data-name="Group 13400" transform="translate(151.082 4.548)" clip-path="url(#clip-path-6)">
        <rect id="Rectangle_14485" data-name="Rectangle 14485" width="11.657" height="15.156" transform="translate(-1.409 -1.377)"/>
      </g>
      <g id="Group_13401" data-name="Group 13401" transform="translate(143.412 4.788)" clip-path="url(#clip-path-7)">
        <rect id="Rectangle_14487" data-name="Rectangle 14487" width="10.569" height="14.581" transform="translate(-1.409 -1.361)"/>
      </g>
      <g id="Group_13402" data-name="Group 13402" transform="translate(92.25 4.548)" clip-path="url(#clip-path-8)">
        <rect id="Rectangle_14489" data-name="Rectangle 14489" width="11.657" height="15.156" transform="translate(-1.393 -1.377)"/>
      </g>
      <g id="Group_13403" data-name="Group 13403" transform="translate(84.676 4.788)" clip-path="url(#clip-path-9)">
        <rect id="Rectangle_14491" data-name="Rectangle 14491" width="10.553" height="14.581" transform="translate(-1.425 -1.361)"/>
      </g>
      <g id="Group_13404" data-name="Group 13404" transform="translate(71.145 4.804)" clip-path="url(#clip-path-10)">
        <rect id="Rectangle_14493" data-name="Rectangle 14493" width="10.553" height="14.581" transform="translate(-1.393 -1.377)"/>
      </g>
      <g id="Group_13405" data-name="Group 13405" transform="translate(59.936 4.772)" clip-path="url(#clip-path-11)">
        <rect id="Rectangle_14495" data-name="Rectangle 14495" width="13.275" height="18.016" transform="translate(-1.393 -1.393)"/>
      </g>
      <g id="Group_13406" data-name="Group 13406" transform="translate(34.369 0.112)" clip-path="url(#clip-path-12)">
        <rect id="Rectangle_14497" data-name="Rectangle 14497" width="17.982" height="19.324" transform="translate(-1.399 -1.409)"/>
      </g>
      <g id="Group_13407" data-name="Group 13407" transform="translate(21.137 4.548)" clip-path="url(#clip-path-13)">
        <rect id="Rectangle_14499" data-name="Rectangle 14499" width="11.657" height="15.156" transform="translate(-1.409 -1.377)"/>
      </g>
      <g id="Group_13408" data-name="Group 13408" transform="translate(11.834 4.804)" clip-path="url(#clip-path-14)">
        <rect id="Rectangle_14501" data-name="Rectangle 14501" width="11.818" height="14.602" transform="translate(-1.409 -1.393)"/>
      </g>
      <g id="Group_13409" data-name="Group 13409" clip-path="url(#clip-path-15)">
        <rect id="Rectangle_14503" data-name="Rectangle 14503" width="14.476" height="19.478" transform="translate(-1.393 -1.409)"/>
      </g>
      <g id="Group_13410" data-name="Group 13410" transform="translate(106.918 0.208)" clip-path="url(#clip-path-16)">
        <rect id="Rectangle_14505" data-name="Rectangle 14505" width="16.926" height="19.701" transform="translate(-1.393 -1.393)"/>
      </g>
      <g id="Group_13411" data-name="Group 13411" transform="translate(112.811 4.628)" clip-path="url(#clip-path-17)">
        <rect id="Rectangle_14507" data-name="Rectangle 14507" width="7.398" height="12.253" transform="translate(-1.393 -1.393)"/>
      </g>
    </g>
  </g>
</svg>
